<svg xmlns="http://www.w3.org/2000/svg" version="1.1" viewBox="-5.0 -10.0 110.0 135.0">
 <path d="m62.516 45.277c2.1914 2.7305 2.5625 6.8984 0.92969 10.371-1.4062 2.9961-4.1445 5.4531-7.707 6.918-2.7305 1.1211-5.9102 1.6875-10.008 1.7812-0.10156 0-0.21484 0.003906-0.33984 0.003906-0.57422 0-1.3438-0.058593-2.0156-0.47266-0.23828-0.14844-0.91016-0.63281-1.1719-1.3984-0.76172 0.22266-1.5391 0.38281-2.3281 0.46094-0.33594 0.03125-0.65625 0.050782-0.96484 0.050782-0.77734 0-1.4609-0.10547-2.0742-0.32031-1.1836-0.41016-2.0977-1.2383-2.5156-2.2734-0.20312-0.50391-0.26172-1.043-0.20703-1.5625-0.035156 0-0.070312 0.003906-0.10547 0.003906-0.085937 0-0.17578 0-0.26562-0.007813-1.0273-0.058593-1.9336-0.49609-2.4883-1.2031-0.69531-0.88672-0.82031-2.2148-0.3125-3.3867 0.42578-0.98047 1.168-1.7031 1.8359-2.2773 1.9883-1.707 4.3711-2.9922 6.8906-3.7188 0.52734-0.14844 1.0859 0.15234 1.2383 0.68359s-0.15234 1.082-0.68359 1.2383c-2.2461 0.64453-4.3672 1.793-6.1406 3.3125-0.49609 0.42578-1.0391 0.94531-1.3047 1.5547-0.21094 0.49219-0.19141 1.0508 0.050781 1.3594 0.19531 0.25 0.58203 0.41406 1.0312 0.44141 0.52734 0.027343 1.1055-0.11328 1.6523-0.26172 2.1406-0.58594 4.2227-1.4141 6.1836-2.457 0.48828-0.26172 1.0938-0.074219 1.3516 0.41406s0.074219 1.0938-0.41406 1.3516c-1.9766 1.0508-4.0703 1.8867-6.2188 2.5078-0.30859 0.25-0.41406 0.8125-0.23437 1.2578 0.19531 0.48828 0.69141 0.91016 1.3164 1.1289 0.58594 0.20312 1.2812 0.25781 2.1875 0.16797 2.168-0.21094 4.2773-1.1016 5.9414-2.5 0.42188-0.35547 1.0547-0.30078 1.4102 0.12109 0.35547 0.42188 0.30078 1.0547-0.12109 1.4102-0.76953 0.64844-1.625 1.1992-2.5273 1.6523-0.019531 0.015625-0.03125 0.039063-0.050781 0.054688-0.20313 0.14062-0.24609 0.22656-0.24609 0.22656 0.015625-0.027344 0.16797 0.15625 0.34766 0.26562 0.28516 0.17578 0.77734 0.17969 1.2539 0.16797 3.8438-0.085938 6.7969-0.60547 9.293-1.6328 3.0977-1.2734 5.4648-3.375 6.6602-5.918 1.3164-2.7969 1.0391-6.1172-0.68359-8.2656-0.34375-0.42969-0.27734-1.0586 0.15625-1.4062 0.42969-0.34375 1.0586-0.27734 1.4062 0.15234zm24.742-21.965c-0.15234 0.37891-0.51953 0.625-0.92578 0.625h-5.1289c0.19531 0.37891 0.37891 0.77344 0.51953 1.1953 0.26562 0.79688 0.48438 2 0.023438 3.1953-0.57422 1.4883-2.1055 2.4453-3.6719 2.4453-0.17188 0-0.33984-0.015626-0.51172-0.039063 0.16406 1.6484 0.33984 3.3828 0.51562 5.125 0.22656 2.2422 0.45312 4.4805 0.65625 6.5234 0.51172 5.1484 1.0938 10.984-0.95703 16.293-1.5859 4.1055-4.8164 7.8242-9.0938 10.473-0.57812 0.35937-1.1719 0.69141-1.7773 1.0117-0.64844 2.043-1.3242 4.1523-2.4883 6.0742-1.2188 2.0156-2.8516 3.5195-4.6562 4.3086l0.13672 6.0703c2.9766 0.21875 5.457 1.1133 7.3945 2.6641 0.34375 0.27344 0.46484 0.73828 0.30469 1.1445s-0.57031 0.67188-1.0039 0.62891l-1.8867-0.14062 0.48438 0.87109c0.1875 0.33594 0.16406 0.74609-0.054687 1.0586-0.1875 0.26953-0.49609 0.42578-0.81641 0.42578-0.054687 0-0.10547-0.003906-0.16016-0.011719l-7.0938-1.1562c-0.19141 0.30469-0.52734 0.49219-0.89062 0.47656l-1.75-0.085938c0.21875 0.30469 0.42969 0.62891 0.64844 0.99609 0.20703 0.34766 0.18359 0.78516-0.058594 1.1094-0.19141 0.25391-0.49219 0.40234-0.80078 0.40234-0.082032 0-0.16406-0.007813-0.24609-0.03125l-8.9766-2.293-4.5977 0.95703c-0.69531 0.15234-1.4062-0.14453-1.793-0.75-0.38672-0.60156-0.36719-1.3594 0.054688-1.9375 0.98047-1.3398 2.5547-2.5938 4.0859-3.2852l-0.28516-7.582c-2.5664-1.3711-4.4766-3.7773-5.0117-6.3281-5.7383-0.39453-10.449-5.6367-12.211-10.781-1.2617-0.51953-2.6484-1.1172-3.9258-1.957-1.6211-1.0859-2.7969-2.4297-3.4102-3.8945-0.64063-1.5273-0.64063-3.2148-0.058594-4.6016-0.96094-0.70312-1.8398-1.5234-2.6016-2.4453-0.61719-0.74609-1.4453-1.9023-1.5117-3.3281-0.046874-1.0039 0.41406-2.1289 1.2617-2.7891-0.5-0.58984-0.97266-1.2031-1.3867-1.8594-0.98828-1.5625-1.1836-2.918-0.57812-4.0234 0.50391-0.92578 1.5469-1.5117 2.75-1.5547-0.78125-1.0898-1.4531-2.3594-1.7461-3.8047-0.47266-2.3242 0.3125-5.3359 2.7266-6.6016 1.832-0.95703 4.2148-0.73828 6.8906 0.64453 4.8711 2.5117 8.9844 7.3516 10.832 12.711 5.4414 1.7773 15.023 0.42969 19.367-2.793 0.27734-0.20703 0.53516-0.48047 0.76953-0.82031 2.043-2.9609 3.3867-6.4766 4.6875-9.875 1.3516-3.5312 2.625-6.8672 4.5508-9.0156 0.69922-0.81641 1.4961-1.5078 2.3516-2.0938-1.0039-0.64062-1.7461-1.6094-2.0156-2.7188-0.45312-1.8555 0.56641-3.8789 2.2695-4.5078 0.80859-0.29688 1.7422-0.23828 2.5625 0.15234 0.31641-0.82031 0.86719-1.5547 1.6016-2.0547 1.5469-1.0508 3.7305-0.96875 5.1914 0.19922 0.84766 0.67578 1.3945 1.6719 1.5703 2.7305 0.89453-0.23437 1.8867-0.14062 2.7344 0.33203 1.4453 0.8125 2.2617 2.6328 1.9336 4.332-0.23438 1.207-1.0195 2.3008-2.0938 3.0039 0.38281 0.47266 0.73438 0.97656 1.0312 1.5312 1.8281 0.76562 3.7656 2.1641 6.0391 4.3516 0.29297 0.28125 0.38672 0.71484 0.23438 1.0938zm-18.875-9.6328c1.6758-0.67969 3.4844-0.94922 5.2812-0.75 1.8047 0.20312 3.4375 0.88672 4.7891 1.9453 0.83203-0.37109 1.4688-1.1016 1.6289-1.918 0.16797-0.86328-0.24219-1.8125-0.94922-2.2109-0.67969-0.38281-1.6797-0.18359-2.0898 0.41406-0.28906 0.41797-0.84375 0.55078-1.293 0.31641-0.44922-0.23828-0.64844-0.77344-0.46094-1.2461 0.36328-0.92969 0.050782-2.1016-0.73047-2.7266s-1.9922-0.66797-2.8203-0.10547c-0.72266 0.49219-1.1211 1.4258-1.0117 2.293 0.058594 0.17969 0.097657 0.36719 0.11719 0.55859 0.054688 0.51172-0.28906 0.98047-0.79688 1.082-0.50391 0.10156-1.0039-0.19531-1.1562-0.6875-0.042969-0.14453-0.082031-0.29688-0.10938-0.44531-0.089844-0.19531-0.25-0.37109-0.47266-0.50781-0.37109-0.23047-0.82031-0.29688-1.168-0.16797-0.75391 0.27734-1.2305 1.2852-1.0195 2.1602 0.21875 0.89453 1.0547 1.6641 2.082 1.918 0.066406 0.015626 0.11719 0.054688 0.17969 0.082032zm-15.676 76.723c-1.6602-0.67188-3.6211-1-5.4648-1.2188-0.50391-0.0625-0.88672-0.49219-0.87891-1l0.0625-7c-0.65625-0.03125-1.3047-0.12891-1.9414-0.29688l0.28125 7.4023c0.015625 0.44141-0.26172 0.84375-0.67969 0.98438-1.125 0.37891-2.3945 1.25-3.3047 2.2344l4.0273-0.83984c0.15234-0.03125 0.30469-0.027344 0.45312 0.007812l6.332 1.6172c-0.066406-0.0625-0.13281-0.12891-0.20703-0.19531-0.30859-0.28516-0.40234-0.73438-0.23828-1.1211 0.16406-0.38672 0.5625-0.63672 0.97266-0.60937l0.58984 0.027343zm-4.2773-9.3398-0.058594 6.25c1.3203 0.18359 2.6641 0.44141 3.9375 0.83984 0.039062-0.035156 0.0625-0.078125 0.10938-0.10547l1.9531-1.2852-0.17969-6.1289c-0.69531-0.29297-1.3203-0.70703-1.8398-1.2227-0.019531 0.011719-0.035156 0.027344-0.050781 0.042969-1.1484 0.83984-2.4844 1.375-3.8711 1.6094zm10.461 7.5039c-0.53516-0.011718-0.96094-0.44531-0.97266-0.97656l-0.14453-6.4961c-0.30469 0.039062-0.60938 0.070312-0.91406 0.070312-0.21875 0-0.4375-0.011718-0.65234-0.03125l0.17969 6.1289c0.011719 0.34766-0.16016 0.67578-0.44922 0.86328l-1.418 0.92969c0.45312 0.23828 0.87891 0.50781 1.2812 0.8125l6.6328 1.082-0.37891-0.6875c-0.17969-0.32031-0.16797-0.71484 0.03125-1.0234 0.054687-0.085937 0.12109-0.16016 0.19922-0.22656-1.0352-0.26562-2.168-0.41797-3.3945-0.44922zm5.5078-17.207c-2.3945 1.0117-5.0273 1.7852-8.0117 2.3711-0.69141 1.7617-1.5352 3.1953-2.5547 4.3242 1.1055 1.043 2.9336 1.4062 4.6016 0.85937 1.625-0.53125 3.1406-1.8516 4.2695-3.7148 0.71875-1.1875 1.2383-2.5039 1.6953-3.8398zm14.5-47.422h-0.64844c-0.76562 0-1.4766-0.41406-1.8516-1.0859-0.37891-0.66797-0.36719-1.4609 0.03125-2.1133 0.75391-1.2422 1.5117-2.1094 2.3477-2.668-1.2266-1.7734-3.125-2.9062-5.332-3.1562-2.9727-0.32812-6 0.92188-8.0938 3.3633-1.6914 1.8906-2.9023 5.0586-4.1875 8.4141-1.2773 3.3438-2.7305 7.1367-4.9102 10.297-0.35938 0.51562-0.76953 0.94922-1.2227 1.2891-4.9883 3.7031-15.738 5.1406-21.703 2.9062-0.28516-0.10547-0.50781-0.33984-0.60156-0.63281-1.6094-5.0625-5.4414-9.6641-10.004-12.016-1.4453-0.74609-3.4961-1.4688-5.0469-0.65234-1.5234 0.79688-2.0117 2.8789-1.6953 4.4336 0.40234 1.9844 1.8086 3.6641 2.9883 4.9023 0.32422 0.33984 0.36719 0.85547 0.10547 1.2461s-0.75391 0.54297-1.1914 0.375c-0.55469-0.21484-1.1562-0.31641-1.9492-0.32422-0.5 0.039063-0.98828 0.20703-1.1562 0.51562-0.30078 0.55469 0.19141 1.4883 0.51172 2 2.0625 3.2617 5.3945 5.6758 9.1367 6.6211 0.53516 0.13281 0.85938 0.67969 0.72656 1.2148-0.11328 0.45312-0.51953 0.75391-0.96875 0.75391-0.082032 0-0.16406-0.007813-0.24609-0.03125-2.8203-0.71094-5.418-2.168-7.5391-4.1445-0.38281 0.13281-0.70313 0.67188-0.67578 1.207 0.03125 0.62891 0.36328 1.3125 1.0547 2.1484 1.707 2.0625 4.082 3.5469 6.6875 4.1719 0.53516 0.12891 0.86719 0.66797 0.73828 1.207-0.10938 0.45703-0.51953 0.76562-0.97266 0.76562-0.078125 0-0.15625-0.007812-0.23438-0.027343-1.1992-0.28906-2.3516-0.73828-3.4375-1.3203-0.26172 0.83594-0.20312 1.8281 0.18359 2.75 0.46094 1.0977 1.3828 2.1367 2.6719 2.9961 1.2539 0.82422 2.7188 1.4219 4.0078 1.9453 0.27734 0.11328 0.48828 0.34375 0.57812 0.62891 1.4961 4.8516 5.9492 9.9531 11.297 9.8477 0.54688-0.023437 0.97266 0.39062 1.0156 0.91797 0.1875 2.3281 1.9844 4.6602 4.4766 5.8242 0.007813 0.003907 0.011719 0.007813 0.019532 0.007813 0.019531 0.007813 0.035156 0.019531 0.054687 0.027344 2.3047 1.0664 5.2305 0.77734 7.2734-0.71875 1.5234-1.1055 2.6953-2.8398 3.5898-5.3125 0.011719-0.035157 0.039063-0.054688 0.054688-0.085938 0.03125-0.0625 0.066406-0.12109 0.10938-0.17969 0.039063-0.050782 0.078125-0.09375 0.125-0.13281 0.046875-0.042969 0.097656-0.078125 0.15234-0.11328 0.058593-0.035156 0.12109-0.058594 0.1875-0.082031 0.035156-0.011719 0.058593-0.035157 0.09375-0.042969l0.14844-0.03125c4.8359-0.91016 8.6523-2.3086 12.039-4.4062 3.9102-2.418 6.8516-5.7891 8.2812-9.4922 1.8789-4.8633 1.3242-10.445 0.83203-15.371-0.20312-2.0391-0.42969-4.2812-0.65625-6.5195-0.22266-2.1953-0.44531-4.3867-0.64453-6.3906-0.96875-0.95312-1.4688-2.3867-1.168-3.7539 0.11719-0.53906 0.64844-0.87891 1.1914-0.76172 0.53906 0.11719 0.87891 0.65234 0.76172 1.1914-0.20703 0.94141 0.39453 2.0352 1.293 2.3398 0.88281 0.30078 2.0273-0.22266 2.3555-1.0781 0.19141-0.50391 0.17578-1.1602-0.054687-1.8477-0.20703-0.62109-0.54688-1.2109-0.92188-1.8242zm4.8164-2c-1.3477-1.1055-2.5508-1.8555-3.6758-2.3008-0.63672 0.37109-1.25 1.0625-1.8984 2.1367-0.007813 0.015624-0.027344 0.042968 0 0.097656 0.023437 0.042968 0.0625 0.066406 0.10938 0.066406zm-9.8203-4.1602c-0.80078 0-1.4453 0.64844-1.4453 1.4453 0 0.80078 0.64844 1.4453 1.4453 1.4453 0.80078 0 1.4453-0.64844 1.4453-1.4453 0-0.80078-0.64844-1.4453-1.4453-1.4453z"/>
<text x="0.0" y="117.5" font-size="5.0" font-weight="bold" font-family="Arbeit Regular, Helvetica, Arial-Unicode, Arial, Sans-serif" fill="#000000">Created by Lewen Design</text><text x="0.0" y="122.5" font-size="5.0" font-weight="bold" font-family="Arbeit Regular, Helvetica, Arial-Unicode, Arial, Sans-serif" fill="#000000">from Noun Project</text></svg>