<svg xmlns="http://www.w3.org/2000/svg" xmlns:xlink="http://www.w3.org/1999/xlink" version="1.1" x="0px" y="0px" viewBox="0 0 64 80" style="enable-background:new 0 0 64 64;" xml:space="preserve"><g><path d="M55.285,35.301C54.183,36.429,53.085,37,52.021,37c-3.688,0-5.003-2.583-5.003-5V22c0-9.591-7.549-17.431-17.018-17.95V2   h-2v2.051c-0.335,0.019-0.67,0.031-1,0.068V2h-2v2.466c-7.512,1.716-13.243,8.129-13.921,15.976l-4.974,3.73L11,26.618V36   c0,10.685,7.586,19.36,18,21.492V61h-4v2h6v-5.186C31.985,57.933,32.988,58,34.012,58c0.671,0,1.332-0.041,1.988-0.097V61h-4v2h6   v-5.362c10.458-1.818,18.509-10.641,18.999-21.593l0.117-2.617L55.285,35.301z M9.895,23.829L11,23v1.382L9.895,23.829z M34.012,56   C22.033,56,13,47.402,13,36V22c0-8.822,7.182-16,16.01-16c8.827,0,16.008,7.178,16.008,16v10c0,3.484,2.165,7,7.003,7   c0.936,0,1.857-0.258,2.756-0.769C53.224,48.361,44.506,56,34.012,56z"/><path d="M23,19c0-1.654-1.346-3-3-3s-3,1.346-3,3s1.346,3,3,3S23,20.654,23,19z M20,20c-0.552,0-1-0.448-1-1s0.448-1,1-1   s1,0.448,1,1S20.552,20,20,20z"/><path d="M32,26c-5.514,0-10,4.486-10,10s4.486,10,10,10h10V36C42,30.486,37.514,26,32,26z M40,44h-8c-4.411,0-8-3.589-8-8   s3.589-8,8-8s8,3.589,8,8V44z"/></g><text x="0" y="79" fill="#000000" font-size="5px" font-weight="bold" font-family="'Helvetica Neue', Helvetica, Arial-Unicode, Arial, Sans-serif">Created by Eucalyp</text><text x="0" y="84" fill="#000000" font-size="5px" font-weight="bold" font-family="'Helvetica Neue', Helvetica, Arial-Unicode, Arial, Sans-serif">from the Noun Project</text></svg>