<?xml version="1.0" encoding="UTF-8" standalone="no"?>
<!-- Created with Inkscape (http://www.inkscape.org/) -->

<svg
   width="70mm"
   height="70mm"
   viewBox="0 0 70 70"
   version="1.1"
   id="svg5"
   xml:space="preserve"
   inkscape:version="1.2.2 (b0a8486541, 2022-12-01)"
   sodipodi:docname="shogi.svg"
   xmlns:inkscape="http://www.inkscape.org/namespaces/inkscape"
   xmlns:sodipodi="http://sodipodi.sourceforge.net/DTD/sodipodi-0.dtd"
   xmlns="http://www.w3.org/2000/svg"
   xmlns:svg="http://www.w3.org/2000/svg"><sodipodi:namedview
     id="namedview7"
     pagecolor="#ffffff"
     bordercolor="#cccccc"
     borderopacity="1"
     inkscape:showpageshadow="0"
     inkscape:pageopacity="1"
     inkscape:pagecheckerboard="0"
     inkscape:deskcolor="#d1d1d1"
     inkscape:document-units="mm"
     showgrid="false"
     inkscape:zoom="0.36124088"
     inkscape:cx="-244.98888"
     inkscape:cy="499.66659"
     inkscape:window-width="1854"
     inkscape:window-height="1011"
     inkscape:window-x="0"
     inkscape:window-y="0"
     inkscape:window-maximized="1"
     inkscape:current-layer="layer1" /><defs
     id="defs2" /><g
     inkscape:label="Ebene 1"
     inkscape:groupmode="layer"
     id="layer1"
     transform="translate(102.08444,-236.04519)"><g
       id="g2867"
       transform="translate(-242.08445,92.470424)"><g
         id="g2859"
         transform="matrix(0.36724648,0,0,0.36724648,164.49932,169.07085)"><g
           id="g2853"><path
             d="M 55.285,35.301 C 54.183,36.429 53.085,37 52.021,37 48.333,37 47.018,34.417 47.018,32 V 22 C 47.018,12.409 39.469,4.569 30,4.05 V 2 H 28 V 4.051 C 27.665,4.07 27.33,4.082 27,4.119 V 2 H 25 V 4.466 C 17.488,6.182 11.757,12.595 11.079,20.442 L 6.105,24.172 11,26.618 V 36 c 0,10.685 7.586,19.36 18,21.492 V 61 h -4 v 2 h 6 V 57.814 C 31.985,57.933 32.988,58 34.012,58 34.683,58 35.344,57.959 36,57.903 V 61 h -4 v 2 h 6 V 57.638 C 48.458,55.82 56.509,46.997 56.999,36.045 l 0.117,-2.617 z M 9.895,23.829 11,23 v 1.382 z M 34.012,56 C 22.033,56 13,47.402 13,36 V 22 c 0,-8.822 7.182,-16 16.01,-16 8.827,0 16.008,7.178 16.008,16 v 10 c 0,3.484 2.165,7 7.003,7 0.936,0 1.857,-0.258 2.756,-0.769 C 53.224,48.361 44.506,56 34.012,56 Z"
             id="path2847" /><path
             d="m 23,19 c 0,-1.654 -1.346,-3 -3,-3 -1.654,0 -3,1.346 -3,3 0,1.654 1.346,3 3,3 1.654,0 3,-1.346 3,-3 z m -3,1 c -0.552,0 -1,-0.448 -1,-1 0,-0.552 0.448,-1 1,-1 0.552,0 1,0.448 1,1 0,0.552 -0.448,1 -1,1 z"
             id="path2849" /><path
             d="m 32,26 c -5.514,0 -10,4.486 -10,10 0,5.514 4.486,10 10,10 H 42 V 36 C 42,30.486 37.514,26 32,26 Z m 8,18 h -8 c -4.411,0 -8,-3.589 -8,-8 0,-4.411 3.589,-8 8,-8 4.411,0 8,3.589 8,8 z"
             id="path2851" /></g><text
           x="0"
           y="79"
           fill="#000000"
           font-size="5px"
           font-weight="bold"
           font-family="'Helvetica Neue', Helvetica, Arial-Unicode, Arial, Sans-serif"
           id="text2855">Created by Eucalyp</text><text
           x="0"
           y="84"
           fill="#000000"
           font-size="5px"
           font-weight="bold"
           font-family="'Helvetica Neue', Helvetica, Arial-Unicode, Arial, Sans-serif"
           id="text2857">from the Noun Project</text></g><rect
         style="fill:none;stroke:#808080;stroke-width:0.525921"
         id="rect2861"
         width="69.474075"
         height="69.474075"
         x="140.26297"
         y="143.83772" /><g
         id="g2865"
         transform="translate(69.474079,100.80238)"><ellipse
           style="fill:#000000;stroke:#000000;stroke-width:0.332102"
           id="ellipse2863"
           cx="105.52592"
           cy="48.288891"
           rx="1.2883031"
           ry="1.2331359" /></g></g></g></svg>
