<svg xmlns="http://www.w3.org/2000/svg" version="1.1" viewBox="-5.0 -10.0 110.0 135.0">
 <path d="m54.527 51.215c-0.27344-0.003906-0.55469 0.015625-0.82812 0.070312-0.23828 0.046875-0.46875 0.125-0.67969 0.23828-2.4883 1.332-2.0352 7.0312 2.2188 6.1992 3.0234-0.59375 3.1602-6.4688-0.71094-6.5078z"/>
 <path d="m38.973 55.766c-0.35156-0.058594-0.72266-0.054687-1.0742 0.015625-0.09375 0.019531-0.18359 0.042969-0.27344 0.070312-0.76953 0.24609-1.3125 0.88281-1.5352 1.6484-0.32031 1.0898-0.0625 2.4531 0.82812 3.2109 0.62109 0.52734 1.4531 0.64453 2.2344 0.50781 2.6758-0.46094 2.6914-4.9609-0.18359-5.4531z"/>
 <path d="m46.965 55.797c-0.27734 0-0.55469 0.042969-0.8125 0.13281-0.65625 0.22266-1.2031 0.72266-1.3867 1.4258-0.28125 1.082 0.058594 2.4453 1.0078 3 0.26172 0.15234 0.56641 0.23438 0.85547 0.27734 0.44141 0.070313 0.89453 0.042969 1.3125-0.13281 0.46094-0.19141 0.83203-0.53906 1.082-0.96875 0.4375-0.75 0.51562-1.7383 0.125-2.5234-0.40625-0.82422-1.3047-1.2109-2.1914-1.2109z"/>
 <path d="m56.738 47.469c-0.125-0.003906-0.25781 0.011719-0.38281 0.042969-0.15625 0.042969-0.30469 0.12109-0.41016 0.24609-0.49609 0.58984-0.039062 1.9219 1.1094 1.7109 1.1719-0.21484 0.92578-1.9805-0.31641-2z"/>
 <path d="m65.773 12.77c-0.10938 0.003907-0.22266 0.019531-0.32813 0.058594-0.066406 0.023437-0.12891 0.058594-0.17969 0.10156-0.4375 0.375 0.003906 1.3867 0.60156 1.2969 0.70703-0.10547 0.79687-1.4805-0.09375-1.4609z"/>
 <path d="m73.438 16.258c-0.097656 0.007813-0.20703 0.027344-0.30078 0.066407-0.082031 0.035156-0.15625 0.085937-0.20703 0.16016-0.29297 0.40625 0.054687 1.3242 0.62891 1.2422 0.74219-0.10937 0.8125-1.5469-0.11719-1.4688z"/>
 <path d="m76.613 15.453c-0.66406-1.1523-1.7344-1.5859-2.7656-2.0039-0.66797-0.26953-1.2969-0.52344-1.8164-0.96094-0.23828-0.20312-0.47266-0.44531-0.6875-0.72656-0.25-0.32031-0.46094-0.66406-0.67578-1.0078-0.26953-0.42969-0.54688-0.87109-0.88672-1.2812-0.51953-0.62109-1.1602-1.0898-1.8438-1.4141l-0.070312-0.32422c-0.019532-0.097656-0.023438-0.19922-0.023438-0.30078 0-0.36328 0.082031-0.82031 0.16406-1.3008 0.22656-1.2969 0.50391-2.9141-0.80859-3.4648-0.33203-0.14062-0.72656-0.19141-1.1094-0.14062-0.40234 0.046875-0.74609 0.22266-0.99219 0.5-0.20703 0.23828-0.34375 0.53906-0.41406 0.92188-0.066406 0.36719-0.0625 0.72266-0.050782 0.99609 0.015626 0.33203 0.054688 0.66406 0.09375 0.99609l0.03125 0.23438c0.027344 0.21875 0.054688 0.44141 0.078126 0.66016 0.019531 0.21094 0.035156 0.42969 0.011718 0.625-0.007812 0.054687-0.019531 0.10937-0.03125 0.16406-0.12109 0.007812-0.23438 0.007812-0.35938 0.019531-0.16797 0.019531-0.32812 0.035157-0.4375 0.003907-0.32422-0.085938-0.35156-1.1719-0.37109-1.8867-0.035157-1.3555-0.082032-3.043-1.5859-3.2031-0.35547-0.039063-0.73438 0.019531-1.0625 0.16016-1.5586 0.66797-0.96875 2.7578-0.49609 4.4336 0.10156 0.36328 0.20312 0.71875 0.28125 1.0469 0.042969 0.18359 0.074219 0.34375 0.097656 0.48047-0.66016-0.16406-1.3242-0.24219-1.9766-0.23047l-0.11719 0.003906c-0.77734 0.027344-1.5742 0.17188-2.3672 0.42969l-0.21094 0.066407c-0.20703 0.066406-0.41797 0.13281-0.62109 0.21484-0.16406 0.066407-0.33203 0.13281-0.50391 0.23047-0.13672 0.078125-0.45703 0.25781-0.52344 0.63281-0.32031 1.7539 1.9102 3.1406 3.3828 4.0586 0.26563 0.16406 0.58594 0.36328 0.69531 0.42969 0 0.054687 0 0.12109-0.003906 0.19531-0.0625 1.918-0.31641 3.875-0.56641 5.7656-0.082031 0.62109-0.16406 1.2422-0.23828 1.8633-0.28516 2.3516-0.625 4.7422-0.94922 7.0508-0.21484 1.5039-0.42578 3.0117-0.62891 4.5195-0.46875 3.5195-1.0664 7.2227-2.7578 10.406-1.4258 2.6875-4.5352 5.3867-7.5703 6.5625-1.2109 0.46875-2.5938 0.39453-3.9375 0.32812-0.375-0.019531-0.75-0.039062-1.1211-0.046875-1.3984-0.03125-2.6562 0.20312-3.957 0.73828-2.3164 0.95703-4.1094 2.5117-5.1836 4.5078-0.13672 0.25-0.24609 0.51953-0.35937 0.78516-0.41797 0.17969-0.85156 0.39062-1.3359 0.65234-0.30859 0.16406-0.60938 0.33984-0.90234 0.52734-0.59766 0.37891-1.168 0.80469-1.6953 1.2656-0.46875 0.41016-0.91406 0.85938-1.3203 1.3359-0.73438 0.85938-1.3555 1.8281-1.8555 2.8711-1.1758 2.4727-1.6406 5.4062-1.3359 8.4844 0.019531 0.19141 0.042969 0.38281 0.097656 0.57031 0.03125 0.11328 0.12109 0.27344 0.21094 0.34766 0.10156 0.082031 0.22656 0.125 0.35547 0.125 0.03125 0 0.066406-0.003906 0.097656-0.007813 0.16016-0.027343 0.30078-0.125 0.38281-0.26562 0-0.003906 0.14062-0.26953 0.14062-0.26953 0.20703-0.40234 0.35938-0.82812 0.50391-1.2383l0.13672-0.37891c0.16406-0.44531 0.32422-0.89453 0.48438-1.3398l0.09375-0.25781c0.39844-1.1172 0.76172-2.1172 1.1953-3.0898 0.48828-1.0898 1-1.9883 1.5664-2.7422 0.45312-0.60547 0.97266-1.1484 1.5352-1.6133 0.30469-0.25391 0.61719-0.47266 0.92578-0.67188 0.011718 0.85938 0.10156 1.7227 0.20703 2.5977 0.003906 0.042969 0.015625 0.089844 0.027343 0.14062 0.14453 1.1602 0.46875 2.3008 0.77734 3.4023 0.53125 1.8867 1.0352 3.668 0.62891 5.3477-0.14844 0.61719-0.48437 1.3828-0.80859 2.1211-0.43359 0.98828-0.87891 2.0078-0.96484 2.8477-0.054687 0.53125 0.078125 1.1367 0.20312 1.7227 0.085938 0.40625 0.17578 0.82422 0.1875 1.1484 0.039062 1.3711 0.10156 2.75 0.16797 4.1328 0.17578 3.7305 0.35547 7.5898-0.015625 11.301l-0.042969 0.39063c-0.015625 0.16797 0.035156 0.34766 0.14453 0.46875 0.26562 0.29297 1.3633 0.375 2.2812 0.375 0.66797 0 1.2422-0.042969 1.3359-0.082032 0.57812-0.23438 0.95312-0.89062 0.88672-7.6211l-0.003906-0.59375c0-1.0664-0.066406-2.1406-0.12891-3.1797-0.15625-2.5586-0.30078-4.9922 0.49219-7.2539 0.035156 0.16406 0.078124 0.32422 0.11328 0.48828 0.1875 0.91797 0.34375 1.8945 0.47656 2.9883 0.11719 0.96484 0.21484 1.9922 0.29688 3.1367 0.074219 1.0586 0.12891 2.1172 0.17578 3.1758 0.039062 0.93359 0.070312 1.8672 0.10547 2.8047l0.011719 0.35547c0.015625 0.47656 0.03125 0.94922 0.027344 1.4258-0.011719 0.89062-0.066407 1.9375-0.10547 2.6758-0.027344 0.48828-0.042969 0.84766-0.039062 0.96094 0.007812 0.26172 0.19922 0.48437 0.45703 0.53516 0.70312 0.13281 1.2695 0.20312 1.7383 0.20312 0.66016 0 1.1133-0.13672 1.4492-0.41016 0.65625-0.53906 0.66406-1.4453 0.67188-2.5898 0.003906-0.33203 0.003906-0.69531 0.023437-1.0898 0.066407-1.5234-0.027343-3.3711-0.12891-5.3281-0.21484-4.2344-0.46094-9.0352 0.90234-11.637 0.31641-0.60547 0.6875-1.1797 1.0078-1.6641l0.44922-0.67188c0.23047-0.34375 0.46094-0.68359 0.68359-1.0312 0.45312-0.70312 0.77344-1.2617 1.0391-1.8164 0.33594-0.69922 0.56641-1.3555 0.70312-2.0156 0.078125-0.37891 0.125-0.77344 0.14062-1.2344l5.4336 0.066406c0.023438 9.707 0.066406 18.25 0.12891 26.156 0.003906 0.32812 0.003906 0.65625 0.003906 0.98828l-0.003906 0.31641c-0.015625 1.3086-0.015625 1.4141 0.30859 1.5938 0.082031 0.042969 0.17188 0.066407 0.26172 0.070313l3.4531 0.14453h0.023437c0.19141 0 0.36719-0.097656 0.47266-0.25781 0.12109-0.1875 0.10156-0.36719 0.070312-0.69141l-0.023438-0.21875c-0.050781-0.47266-0.10156-0.94531-0.13672-1.4219-0.36328-4.9609-0.10156-10.629 0.75391-16.395 0-0.007812 0.003906-0.019531 0.007812-0.027344 0.074219 2.7656 0.15234 5.5273 0.22656 8.293l0.1875 6.793c0.015625 0.58594 0.03125 1.168 0.039063 1.7539l-0.003907 0.4375c-0.003906 0.30469-0.007812 0.61328 0.011719 0.91797 0.007812 0.14844 0.039062 0.27344 0.089844 0.39062 0.058594 0.12891 0.15234 0.23828 0.27344 0.32031 0.1875 0.13281 0.48438 0.25781 1.2227 0.25781 0.21094 0 0.45703-0.011719 0.74609-0.035157 0.23047-0.019531 0.46094-0.042968 0.6875-0.066406 0.33594-0.035156 0.82812-0.11719 1.0664-0.15625 0.57422-0.070312 0.53906-0.37109 0.40234-1.6484-0.054687-0.50391-0.11719-1.0859-0.14453-1.4805-0.039062-0.57812-0.070312-1.1523-0.089844-1.7305-0.039062-1.0977-0.050781-2.25-0.03125-3.4297 0.019532-1.1016 0.066406-2.2227 0.14062-3.4336 0.070313-1.1445 0.16406-2.293 0.27344-3.4336 0.10938-1.1484 0.23438-2.293 0.36719-3.4375 0.13281-1.1484 0.27734-2.293 0.42578-3.4414l0.44531-3.4453c0.14453-1.1484 0.28906-2.2969 0.42578-3.4492l0.097657-0.86328c0.058593-0.50391 0.11328-1.0078 0.14844-1.5156 0.042969-0.67578 0.058594-1.375 0.039063-2.0703l-0.003907-0.14062c-0.007812-0.20703-0.015625-0.41797 0.019531-0.57422 0.046876-0.19141 0.10938-0.37891 0.16797-0.57031 0.058594-0.17969 0.11328-0.35938 0.16406-0.53906v-0.003906-0.007813c0.003906-0.007812 0.007812-0.019531 0.007812-0.027343v-0.011719c0.070313-0.22656 0.125-0.46094 0.16016-0.72266 0.078126-0.57031 0.085938-1.1289 0.089844-1.6016v-0.19141c0-0.87109 0.003906-4 0.019532-5.2969 0.007812-0.5 0.015624-1 0.03125-1.4961 0.039062-1.332 0.058593-2.668 0.078124-4 0.015626-1.0508 0.03125-2.1055 0.054688-3.1562l0.019531-1.1211c0.011719-0.48828 0.019531-0.97656 0.027344-1.4648l0.046875-2.6055c0.023438-1.0312 0.039062-2.0625 0.058594-3.0938 0.015625-0.93359 0.03125-1.8672 0.050781-2.8008 0.015625-0.83203 0.03125-1.6602 0.042969-2.4883 0.015625-0.99219 0.03125-1.9883 0.054687-2.9805 0.054688-2.418 0.10156-4.8359 0.13281-7.2539 0.011718-0.76953 0.023437-1.5391 0.074218-2.3047 0.023438-0.375 0.054688-0.75391 0.097657-1.125 0.92578-0.050781 3.1172-0.066406 3.5 0.082031 0.32422 0.12891 0.62891 0.41406 0.94922 0.71094 0.30859 0.28516 0.65625 0.60938 1.0781 0.84766 1.3828 0.78906 3.2812 0.83984 4.6133 0.12109 0.94922-0.51172 1.5039-1.3516 1.5703-2.375 0.046875-0.73047-0.14844-1.5391-0.53906-2.2188zm-10.828-11.309c0.03125-0.17578 0.082032-0.30469 0.15234-0.38281 0.074219-0.085938 0.19531-0.11719 0.28125-0.125 0.19141-0.023438 0.39062 0 0.53906 0.0625 0.45313 0.19141 0.33594 1.0859 0.13672 2.2383-0.085937 0.50781-0.17969 1.0312-0.17969 1.4883 0 0.085938 0.015625 0.16797 0.019531 0.25391-0.0625-0.011719-0.12109-0.035157-0.17969-0.039063-0.19141-0.023437-0.39844-0.023437-0.59766-0.03125v-0.007813c0.035157-0.30469 0.015625-0.59375-0.007812-0.86328-0.019531-0.23438-0.050781-0.46484-0.078125-0.69922l-0.027344-0.23047c-0.039062-0.30469-0.070312-0.60547-0.085938-0.91016-0.007812-0.21094-0.015624-0.48828 0.03125-0.74219zm-36.773 57.148c-0.63281 0.52344-1.2109 1.1289-1.7188 1.8047-0.61719 0.82422-1.1719 1.793-1.6953 2.9609-0.44922 1.0078-0.82031 2.0312-1.2266 3.1719l-0.09375 0.25781c-0.10547 0.29297-0.21094 0.58594-0.31641 0.88281 0.015624-2.1953 0.46094-4.2617 1.3164-6.0547 0.45703-0.95703 1.0273-1.8398 1.6953-2.625 0.37109-0.43359 0.77734-0.84766 1.2031-1.2227 0.48438-0.42188 1.0078-0.8125 1.5547-1.1602 0.27344-0.17188 0.55078-0.33594 0.83203-0.48828 0.125-0.066406 0.23438-0.12109 0.35156-0.17969-0.13281 0.55469-0.17578 0.99609-0.21484 1.5195-0.57031 0.30078-1.1406 0.67188-1.6953 1.1289zm15.367 9.4766c-0.24609 0.50781-0.54688 1.0312-0.97266 1.6953-0.21875 0.33984-0.44531 0.67578-0.67188 1.0117l-0.45703 0.67969c-0.33594 0.50781-0.72266 1.1094-1.0664 1.7617-1.5078 2.8711-1.2539 7.8359-1.0312 12.215 0.097656 1.9297 0.19141 3.7539 0.12891 5.2227-0.019532 0.41016-0.019532 0.78906-0.023438 1.1328-0.003906 0.85156-0.011718 1.5195-0.25781 1.7266-0.23047 0.19141-0.83203 0.20703-1.793 0.054687 0.003906-0.12109 0.011719-0.26172 0.023437-0.41406 0.039063-0.75 0.09375-1.8125 0.10547-2.7188 0.007813-0.49219-0.011719-0.98438-0.027343-1.5391l-0.011719-0.29297c-0.03125-0.9375-0.066407-1.875-0.10547-2.8125-0.046875-1.0703-0.10156-2.1367-0.17578-3.207-0.082031-1.1641-0.17969-2.2109-0.30078-3.1953-0.13672-1.1211-0.29688-2.1289-0.49219-3.0742-0.10156-0.5-0.22266-1-0.34375-1.4961l-0.097656-0.41406c0.46875-0.83984 0.98047-1.6484 1.4883-2.4219 1.3047-1.9844 2.6406-4.043 2.9531-6.7539 1.2305 0.023437 2.6094 0.042968 3.8516 0.058593-0.015624 0.375-0.046874 0.71484-0.10937 1.0156-0.12109 0.56641-0.32031 1.1445-0.61719 1.7578zm18.5-4.9141c-0.03125 0.48828-0.085937 0.97656-0.14453 1.4648l-0.097656 0.85938c-0.13281 1.1445-0.27734 2.293-0.42188 3.4375l-0.44531 3.4453c-0.14844 1.1484-0.29297 2.3008-0.42578 3.4531-0.13672 1.1523-0.26172 2.3047-0.37109 3.4609s-0.20312 2.3125-0.27734 3.4727c-0.078124 1.2266-0.12109 2.3633-0.14453 3.4805-0.019531 1.1992-0.011719 2.375 0.03125 3.4922 0.023438 0.58984 0.054688 1.1797 0.09375 1.7656 0.027344 0.40625 0.09375 1.0078 0.14844 1.5273 0.019531 0.17969 0.039062 0.34766 0.054687 0.49609-0.17578 0.027343-0.36719 0.054687-0.52344 0.070312-0.21875 0.023438-0.4375 0.046875-0.65625 0.066406-0.65625 0.050782-0.98047 0.023438-1.1328 0-0.011718-0.23828-0.007812-0.48047-0.003906-0.71875v-0.46094c-0.003906-0.58984-0.019531-1.1836-0.039062-1.7734l-0.1875-6.793c-0.097657-3.4492-0.19531-6.8984-0.28516-10.348-0.007812-0.35547-0.015625-0.71094-0.019531-1.0664-0.003906-0.31641-0.007812-0.63281-0.015625-0.94922 0.25-1.7148 0.42969-3.4727 0.60938-5.1797 0.0625-0.60938 0.12891-1.2148 0.19141-1.8203 0.48047-0.20703 0.99609-0.43359 1.5-0.73047 0.43359-0.25781 0.86328-0.55469 1.2734-0.875 0.42188-0.33203 0.8125-0.67969 1.1641-1.0391 0.050782-0.054688 0.09375-0.10547 0.14062-0.15625 0 0.48047 0.003907 0.96094-0.027343 1.4258zm12.172-46.805c-0.99219 0.53516-2.4727 0.49219-3.5195-0.10938-0.30859-0.17578-0.58203-0.42969-0.87109-0.69531-0.38281-0.35547-0.78125-0.72266-1.2969-0.92969-0.78516-0.31641-4.2773-0.16406-4.5-0.10938-0.042969 0.011719-0.089843 0.027344-0.12891 0.046875-0.32031 0.16406-0.36328 0.52734-0.39844 0.82031-0.050782 0.41797-0.085938 0.83984-0.11328 1.2578-0.050781 0.78906-0.0625 1.5742-0.074218 2.3633-0.007813 0.59375-0.023438 1.1875-0.03125 1.7773-4.8672 0.011719-5.0234 5.4805-0.10156 5.4805-0.023437 0.98828-0.039063 1.9805-0.054687 2.9688-0.011719 0.82812-0.027344 1.6562-0.042969 2.4844v0.023438c-4.625 0.18359-5.2383 6.1445-0.10938 6.0352l-0.023438 1.25c-0.60156 0.070312-1.332 0-1.7852 0.28125-0.47656 0.29688-0.54688 0.98828-0.41406 1.4805 0.23047 0.83984 1.1914 1.1484 2.1484 1.0195l-0.019531 0.98828v0.058594c-4.2969 0.46875-4.3945 6.7617-0.12891 7.082v0.011719c-0.007813 0.31641-0.015626 0.63672-0.019532 0.95312-2.7734 0.66016-3.0664 3.9062-0.03125 4.2227 0 0.71484 0 1.3359-0.003906 1.6523v0.19141c0 0.43359-0.011719 0.94922-0.078125 1.4531-0.027344 0.19141-0.066406 0.38281-0.125 0.57031-0.13281 0.41016-0.32031 0.79297-0.55078 1.1328-0.21875 0.32422-0.48438 0.64453-0.8125 0.98047-0.31641 0.32422-0.66797 0.63672-1.0508 0.9375-0.375 0.29297-0.76172 0.55859-1.1562 0.79688-0.25391 0.15234-0.52344 0.28516-0.79297 0.41016 0.042968-0.43359 0.089844-0.86719 0.13281-1.3047l0.054688-0.57031c0.058594-0.60547 0.125-1.2148 0.19531-1.8164l0.097656-0.82812c0.039063-0.30859-0.18359-0.58203-0.49219-0.62109-0.30859-0.042969-0.58984 0.1875-0.625 0.49609l-0.097656 0.82422c-0.070313 0.61328-0.13672 1.2266-0.19922 1.8398l-0.054688 0.57031c-0.066406 0.67969-0.13281 1.3594-0.20703 2.0391-0.085937 0.78516-0.16797 1.5742-0.25 2.3633-0.17578 1.7109-0.35938 3.4766-0.60938 5.1836l-0.023437 0.16016c-0.078125 0.53516-0.15625 1.0859-0.30078 1.5898-0.078126 0.27344-0.17578 0.54688-0.27344 0.81641-0.17578 0.48828-0.35938 0.99609-0.43359 1.5078-0.86719 5.8438-1.1328 11.598-0.76172 16.641 0.03125 0.45312 0.082031 0.90625 0.12891 1.3555l-2.3164-0.097656c0-0.16406 0.003906-0.35547 0.003906-0.54688l0.003906-0.32031c0.003906-0.33594 0-0.67188-0.003906-1.0781-0.0625-7.9844-0.10547-16.699-0.12891-26.641-0.003907-1.3555-0.003907-3.1133-0.003907-4.625v-1.0273c0-0.3125-0.25-0.5625-0.5625-0.5625s-0.5625 0.25-0.5625 0.5625v1.0273c0 1.3125 0 2.8008 0.003907 4.0625l-6.1406-0.074219c-1.3164-0.015625-2.8516-0.039062-4.1992-0.0625-0.007813-0.61719-0.0625-1.2773-0.10938-1.8398-0.023438-0.25781-0.042969-0.5-0.054688-0.71094-0.019531-0.30859-0.29688-0.55469-0.59766-0.52734-0.30859 0.019532-0.54688 0.28516-0.52734 0.59766 0.011719 0.21875 0.035157 0.46875 0.058594 0.73438 0.0625 0.73047 0.13672 1.6406 0.089844 2.3242-0.17969 2.6562-1.4648 4.6133-2.8281 6.6836-0.62891 0.95312-1.2773 1.9414-1.8398 3.0312-1.4766 2.8516-1.2852 5.9648-1.0977 8.9766 0.0625 1.0195 0.12891 2.0781 0.125 3.1055l0.003906 0.60547c0.042969 4.4883-0.12109 6.0703-0.28516 6.5586-0.45312 0.023437-1.5039 0-2.0781-0.058594 0.36719-3.7734 0.1875-7.6523 0.011719-11.402-0.0625-1.375-0.12891-2.7461-0.16406-4.1094-0.011719-0.42969-0.11328-0.89844-0.21094-1.3555-0.10938-0.5-0.21875-1.0156-0.18359-1.3711 0.070312-0.66406 0.48047-1.6016 0.87891-2.5117 0.34375-0.78516 0.69922-1.5977 0.87109-2.3086 0.47266-1.9648-0.09375-3.9727-0.64062-5.9141-0.29297-1.0352-0.59375-2.1094-0.73438-3.1641 1.8359 0.29688 3.793-1.0469 3.8477-3.0078 0.058594-2.0977-2.0391-2.5391-3.7539-2.6445 0.015625-0.058594 0.03125-0.11719 0.042968-0.17969 0.03125-0.12891 0.058594-0.26172 0.10156-0.38281 0.13281-0.34766 0.28906-0.6875 0.46094-1.0078 0.95313-1.7617 2.5508-3.1445 4.6211-4 1-0.41016 1.9688-0.61328 3.0195-0.64062-0.054688 4.6055 4.7852 4.4219 4.1172 0.042969 0.625-0.054688 1.2461-0.17578 1.8555-0.41016 3.3125-1.2852 6.5938-4.1328 8.1562-7.082 0.03125-0.0625 0.058594-0.125 0.089844-0.1875 0.47266 0.17578 0.91016 0.55859 1.3555 0.62109 4.125 0.59766 4.6484-5.4648 0.47656-5.7266 0.29688-1.2344 0.51172-2.4805 0.69922-3.7188 5.1406 1.418 6.0117-5.1992 0.78906-5.6328 0.03125-0.21484 0.058594-0.43359 0.089844-0.65234 0.32812-2.3164 0.66797-4.7109 0.95312-7.0742 0.035156-0.28516 0.074219-0.57031 0.10938-0.85547 4.1992 0.72656 4.6953-4.5234 0.57031-4.8398 0.058594-0.67578 0.10938-1.3555 0.13281-2.0312 0.011719-0.35938 0-0.5625-0.09375-0.73828-0.13281-0.25391-0.42578-0.44141-1.125-0.875-0.94922-0.58984-2.875-1.7891-2.8828-2.7695 0.10938-0.0625 0.23047-0.10937 0.34766-0.15625 0.17969-0.070312 0.36328-0.12891 0.58984-0.19922l0.16797-0.054688c0.69531-0.22656 1.3867-0.35156 2.0586-0.375l0.10547-0.003906c0.77734-0.007812 1.5391 0.11328 2.332 0.39453 0.26953 0.09375 0.5625-0.027343 0.69141-0.28125 0.0625-0.125 0.22656-0.45703-0.074219-1.7461-0.082031-0.34766-0.1875-0.71875-0.29297-1.0977-0.35547-1.2539-0.79688-2.8164-0.14453-3.0938 0.14844-0.0625 0.33594-0.09375 0.5-0.074219 0.48828 0.050782 0.54688 0.91016 0.58203 2.1133 0.035156 1.2344 0.070312 2.6367 1.2031 2.9453 0.3125 0.082032 0.60938 0.050782 0.89063 0.023438 0.64453-0.066406 1.2539-0.070313 1.8164-0.003906 0.89453 0.10156 1.8242 0.64062 2.4883 1.4375 0.29297 0.35156 0.53906 0.74609 0.79688 1.1602 0.23438 0.375 0.46875 0.75 0.74219 1.1016 0.26562 0.34375 0.55469 0.64453 0.85547 0.89844 0.66016 0.55469 1.4023 0.85547 2.1211 1.1445 0.93359 0.37891 1.7422 0.70312 2.2148 1.5234 0.28125 0.48828 0.42578 1.0664 0.39062 1.582-0.042969 0.63672-0.37109 1.125-0.98047 1.457z"/>
 <path d="m61.574 11.555-2.6328-0.61719c-0.30078-0.070312-0.60547 0.11719-0.67578 0.41797s0.11719 0.60547 0.41797 0.67578l2.6328 0.61719c0.042969 0.011718 0.085938 0.015624 0.12891 0.015624 0.25391 0 0.48828-0.17578 0.54688-0.43359 0.070312-0.30078-0.11719-0.60547-0.41797-0.67578z"/>
<text x="0.0" y="117.5" font-size="5.0" font-weight="bold" font-family="Arbeit Regular, Helvetica, Arial-Unicode, Arial, Sans-serif" fill="#000000">Created by Muhammad Waseem</text><text x="0.0" y="122.5" font-size="5.0" font-weight="bold" font-family="Arbeit Regular, Helvetica, Arial-Unicode, Arial, Sans-serif" fill="#000000">from Noun Project</text></svg>