<svg xmlns="http://www.w3.org/2000/svg" version="1.1" viewBox="-5.0 -10.0 110.0 135.0">
 <path d="m38.309 45.895v-0.12109c0.03125 0 0.058594 0.027343 0.058594 0.058593zm0-2.6211c-1.4102 0-2.5586 1.1484-2.5586 2.5586 0 1.4102 1.1484 2.5586 2.5586 2.5586s2.5586-1.1484 2.5586-2.5586c0-1.4102-1.1484-2.5586-2.5586-2.5586"/>
 <path d="m62.414 45.895c-0.03125 0-0.058593-0.027343-0.058593-0.058593l0.058593-0.0625zm0-2.6211c-1.4102 0-2.5586 1.1484-2.5586 2.5586 0 1.4102 1.1484 2.5586 2.5586 2.5586 1.4102 0 2.5586-1.1484 2.5586-2.5586 0-1.4102-1.1484-2.5586-2.5586-2.5586"/>
 <path d="m79.176 81.504-11.195-14.207c0.47266-0.4375 0.92188-0.89453 1.3594-1.3633l13.117 12.059c-1.0273 1.2305-2.1211 2.4023-3.2812 3.5117m-60.91-3.5117 13.117-12.062c0.4375 0.46875 0.88672 0.92578 1.3594 1.3633l-11.195 14.211c-1.1602-1.1055-2.2539-2.2773-3.2812-3.5117m4.3711-58.16 4.7539 4.9609c-1.4844 0.14062-2.832 0.75-3.9023 1.6758-0.011719-0.011719-0.019531-0.027344-0.03125-0.035156l-4.2148-3.2305c1.0664-1.1875 2.1992-2.3086 3.3945-3.3672m58.844 3.3672-4.2148 3.2305c-0.011719 0.011718-0.019531 0.023437-0.03125 0.035156-1.0703-0.92578-2.418-1.5352-3.9023-1.6758l4.7539-4.9609c1.1914 1.0586 2.3281 2.1836 3.3945 3.3711m-5.6055 29.398c0.070312-0.44922 0.13281-0.90234 0.18359-1.3555l16.137-0.27734c0 0.066406 0.003907 0.12891 0.003907 0.19531 0 1.582-0.097657 3.1406-0.26953 4.6758zm16.227-4.1328-15.906 0.27344c0-0.0625 0.003907-0.125 0.003907-0.19141 0-0.52344-0.023438-1.0547-0.058594-1.5898l15.445-2.8867c0.24609 1.4414 0.42187 2.9062 0.51562 4.3945m-1.0117-6.8438-15.227 2.8438c-0.097656-0.60938-0.21484-1.2148-0.35156-1.8203l14.309-5.3789c0.5 1.418 0.91797 2.8711 1.2656 4.3555m-2.1602-6.6836-14.07 5.2891c-0.18359-0.57031-0.37891-1.1328-0.59375-1.6797 1.1719-0.27344 2.2266-0.84766 3.0938-1.6289l9.6523-5.9375c0.70313 1.2773 1.3516 2.5977 1.9219 3.9531m-3.1953-6.1055-6.1484 3.7812c0.035156-0.28516 0.074218-0.57422 0.074218-0.87109 0-1.2109-0.30859-2.3516-0.85547-3.3438l4.2891-3.2891c0.94531 1.1914 1.8242 2.4336 2.6367 3.7227m-32.082-5.5742c-0.64453-0.078124-1.293-0.12891-1.9414-0.15625v-13.844c1.6562 0.058594 3.2812 0.21875 4.8828 0.46094zm22.516-5.0391-7.457 7.7773c-0.92578 0.63672-1.707 1.4844-2.2383 2.5039-0.4375-0.33594-0.89453-0.64844-1.3555-0.95703l7.3984-11.906c1.2656 0.79688 2.4805 1.6562 3.6523 2.5781m-5.8125-3.8398-7.375 11.867c-0.73828-0.39844-1.5039-0.75391-2.2734-1.082l5.3125-12.852c1.4922 0.60547 2.9375 1.2969 4.3359 2.0664m-6.6797-2.9453-5.3164 12.867c-0.74219-0.23438-1.4883-0.4375-2.2461-0.60547l2.9414-13.523c1.5742 0.33594 3.1172 0.75391 4.6211 1.2617m-14.66 11.672c-0.64844 0.027344-1.2969 0.078126-1.9414 0.15625l-2.9414-13.539c1.6016-0.24219 3.2305-0.40625 4.8828-0.46094zm-7.3438-12.934 2.9375 13.523c-0.75781 0.16797-1.5039 0.37109-2.2422 0.60547l-5.3203-12.867c1.5039-0.50781 3.0508-0.92578 4.625-1.2617m-6.9648 2.1445 5.3125 12.852c-0.77344 0.32813-1.5352 0.67969-2.2734 1.082l-7.375-11.867c1.3984-0.76953 2.8477-1.457 4.3359-2.0664m-6.4961 3.3242 7.3984 11.906c-0.46094 0.30859-0.91406 0.61719-1.3555 0.95312-0.53125-1.0195-1.3086-1.8633-2.2344-2.5039l-7.457-7.7812c1.1719-0.92188 2.3867-1.7852 3.6523-2.5781m-19.688 35.531c0-0.066406 0.003906-0.12891 0.003906-0.19531l16.137 0.27734c0.050782 0.45312 0.10938 0.90625 0.18359 1.3555l-16.059 3.2383c-0.17187-1.5352-0.26953-3.0938-0.26953-4.6758m16.055-4.2031c-0.035157 0.53516-0.058594 1.0664-0.058594 1.5898 0 0.0625 0.003906 0.12891 0.003906 0.19141l-15.906-0.27344c0.09375-1.4883 0.26953-2.9531 0.51562-4.3945zm-6.9531-21.852 4.2891 3.2891c-0.54688 0.99219-0.85547 2.1328-0.85547 3.3438 0 0.29687 0.039062 0.58594 0.074218 0.87109l-6.1523-3.7812c0.81641-1.2891 1.6914-2.5352 2.6406-3.7266m-3.9102 5.8789 9.6523 5.9375c0.86328 0.78125 1.9219 1.3555 3.0938 1.6289-0.21875 0.54688-0.41016 1.1094-0.59766 1.6797l-14.07-5.2891c0.57031-1.3555 1.2148-2.6719 1.9219-3.9531m-2.8203 6.2852 14.309 5.3828c-0.13672 0.60156-0.25391 1.2109-0.34766 1.8164l-15.227-2.8438c0.34766-1.4844 0.76562-2.9375 1.2656-4.3555m-1.7461 21.051 16.219-3.2734c0.16797 0.63672 0.36719 1.2656 0.58594 1.8867l-15.695 6.1523c-0.46094-1.5547-0.82812-3.1445-1.1094-4.7656m1.8906 7.1445 15.852-6.2148c0.17578 0.37891 0.35938 0.75 0.55078 1.1172l-14.414 9.6602c-0.74609-1.4766-1.418-2.9961-1.9883-4.5664m3.1836 6.7734 14.484-9.7109c0.33594 0.50781 0.6875 1.0039 1.0586 1.4883l-13.043 12.008c-0.89453-1.2148-1.7266-2.4766-2.4883-3.7812m51.676-6.4375c-0.26953 0.23828-0.42188 0.57812-0.42188 0.9375l-0.019531 5.7344c0 3.7188-3.0234 6.7422-6.7422 6.7422-3.5977 0-6.5352-2.832-6.7266-6.3828 4.3945-0.62109 7.7891-4.3945 7.7891-8.957 0-0.0625-0.003906-0.12109-0.011719-0.18359l-3.9727-26.699c-0.10156-0.68359-0.74609-1.1523-1.4219-1.0508-0.68359 0.10156-1.1523 0.73828-1.0547 1.4219l3.7578 25.266h-6.3555c-0.12891 0-0.24609 0.035157-0.35938 0.074219-0.11719-0.035156-0.23438-0.074219-0.36328-0.074219h-6.3555l3.7578-25.266c0.10156-0.68359-0.36719-1.3203-1.0508-1.4219-0.69141-0.10547-1.3203 0.36719-1.4219 1.0508l-3.9727 26.699c-0.011719 0.0625-0.015625 0.12109-0.015625 0.18359 0 4.5625 3.3945 8.3398 7.7891 8.957-0.1875 3.5508-3.1289 6.3828-6.7266 6.3828-3.7188 0-6.7422-3.0234-6.7422-6.7539l-0.019531-5.7227c0-0.35938-0.15625-0.69922-0.42578-0.9375-4.957-4.3633-7.8008-10.652-7.8008-17.25 0-3.4922 0.89453-7.418 2.3906-10.504 0.17969-0.37109 0.16406-0.80859-0.039062-1.1641-0.20313-0.35938-0.57031-0.59375-0.98047-0.62891l-0.23438-0.019531c-0.035156-0.003906-0.070313-0.003906-0.10547-0.003906-2.4766 0-4.4883-2.0117-4.4883-4.4883 0-2.4766 2.0156-4.4883 4.4883-4.4883 2.0664 0 3.8555 1.3984 4.3555 3.3984 0.007812 0.035156 0.019531 0.070312 0.03125 0.10547l0.074218 0.21875c0.13672 0.39453 0.46094 0.69531 0.86328 0.80078 0.40234 0.10156 0.83203 0.003906 1.1445-0.27344 4.2734-3.7695 9.9141-5.9297 15.473-5.9297h0.71875c5.5625 0 11.199 2.1602 15.473 5.9297 0.3125 0.27344 0.74219 0.37891 1.1445 0.27344 0.40234-0.10547 0.72656-0.40234 0.86328-0.79688l0.074219-0.21875c0.011719-0.035156 0.023437-0.074219 0.03125-0.10938 0.5-2.0039 2.2891-3.3984 4.3555-3.3984 2.4766 0 4.4883 2.0156 4.4883 4.4883 0 2.4766-2.0117 4.4883-4.4883 4.4883-0.035157 0-0.070313 0.003906-0.10547 0.003906l-0.23438 0.019531c-0.41016 0.035157-0.77734 0.26953-0.98047 0.62891s-0.21875 0.79297-0.039063 1.1641c1.4961 3.0859 2.3906 7.0117 2.3906 10.504 0 6.5977-2.8438 12.887-7.8008 17.25m-14.191 22.227c1.3047-0.14062 2.5391-0.46484 3.6602-0.94922l1.2969 5.5195c-1.625 0.25-3.2773 0.41406-4.9609 0.47266zm-1.7109-22.902c0.12891 0 0.24609-0.035156 0.36328-0.074218 0.11719 0.035156 0.23438 0.074218 0.35938 0.074218h6.4336c-0.58594 3.0195-3.2422 5.3086-6.4336 5.3086-0.12891 0-0.24609 0.039062-0.35938 0.074219-0.11719-0.035157-0.23438-0.074219-0.36328-0.074219-3.1875 0-5.8477-2.2891-6.4336-5.3086zm-7.2812 16.562c3.3867-0.25781 6.2578-2.3516 7.6445-5.2852 1.3828 2.9297 4.2578 5.0273 7.6445 5.2852-1.2695 2.2852-4.2812 3.8828-7.6445 3.9141-3.3594-0.03125-6.3711-1.6289-7.6445-3.9141m2.6328 5.3906c1.1211 0.48438 2.3594 0.80859 3.6602 0.94922v5.043c-1.6797-0.058594-3.3359-0.22266-4.9609-0.47266zm-21.941-3.8984 9.3516-11.871 0.003907 1.168c0 1.3086 0.27734 2.5547 0.77344 3.6836l-6.0703 10.027c-1.4062-0.92578-2.7578-1.9297-4.0352-3.0117m6.1602 4.3281 5.4609-8.9922c0.71094 0.82031 1.5664 1.5156 2.5234 2.0469l-3.6289 9.125c-1.5-0.64453-2.9531-1.3711-4.3555-2.1797m6.6836 3.0977 3.6328-9.1406c0.011719 0.003906 0.023437 0.007812 0.03125 0.007812 0.53125 1.6914 1.6602 3.168 3.1719 4.2969l-1.4961 6.3711c-1.8281-0.39453-3.6094-0.91016-5.3398-1.5352m22.879 1.5352-1.4961-6.3711c1.5117-1.1289 2.6406-2.6016 3.1719-4.2969 0.011718-0.003906 0.023437-0.007812 0.03125-0.007812l3.6328 9.1406c-1.7305 0.625-3.5156 1.1406-5.3438 1.5352m7.6641-2.4531-3.6289-9.125c0.96094-0.53125 1.8125-1.2266 2.5234-2.0469l5.4609 8.9922c-1.4023 0.80859-2.8594 1.5352-4.3555 2.1797m6.4805-3.5-6.0898-10.031c0.49219-1.1289 0.76953-2.3672 0.76953-3.6758l0.003906-1.1797 9.3555 11.871c-1.2773 1.0898-2.6289 2.0938-4.0352 3.0195m10.734-10.168-13.059-12.004c0.37109-0.48438 0.72266-0.98047 1.0586-1.4883l14.488 9.7109c-0.76562 1.3086-1.5938 2.5703-2.4883 3.7812m3.6836-5.9922-14.414-9.6602c0.19141-0.36719 0.37891-0.74219 0.55078-1.1211l15.852 6.2148c-0.57031 1.5703-1.2422 3.0938-1.9883 4.5703m2.7695-6.9453-15.695-6.1523c0.21875-0.62109 0.41797-1.2461 0.58594-1.8867l16.219 3.2734c-0.28125 1.6211-0.64844 3.2148-1.1094 4.7656m3.7695-5.5078c0.003906-0.019531-0.003906-0.035156 0-0.050781 0.30078-2.0781 0.46484-4.2031 0.46484-6.3633 0-0.48047-0.019531-0.95312-0.035157-1.4297 0-0.019531 0.011719-0.039062 0.011719-0.058593 0-0.023438-0.011719-0.042969-0.015625-0.0625-0.085937-2.4531-0.35938-4.8555-0.82812-7.1914-0.003906-0.011719 0.003907-0.023437 0-0.035156-0.003906-0.011719-0.007812-0.019531-0.011719-0.03125-0.48828-2.4258-1.1836-4.7773-2.0547-7.0469-0.011719-0.03125-0.003906-0.0625-0.015625-0.097656-0.015625-0.035156-0.042969-0.0625-0.0625-0.097656-0.86328-2.2266-1.9023-4.3672-3.1016-6.4023-0.019532-0.042969-0.023438-0.09375-0.050782-0.13672-0.019531-0.03125-0.050781-0.050781-0.074218-0.078125-1.2188-2.0469-2.5938-3.9844-4.1133-5.8008-0.019531-0.027344-0.023437-0.0625-0.042968-0.089844-0.039063-0.050781-0.097657-0.078125-0.14063-0.12109-1.5938-1.8789-3.3359-3.6211-5.2148-5.2148-0.023438-0.027344-0.03125-0.0625-0.058594-0.085938-0.042969-0.042969-0.10156-0.058594-0.14844-0.09375-1.8398-1.5391-3.8086-2.9336-5.8867-4.1641-0.03125-0.023438-0.046875-0.054688-0.078125-0.074219-0.046875-0.027344-0.097656-0.03125-0.14453-0.054688-2.1484-1.2578-4.4062-2.3438-6.7617-3.2305-0.019532-0.011718-0.035156-0.027343-0.058594-0.039062s-0.050781-0.007812-0.078125-0.015625c-2.3516-0.875-4.7969-1.5508-7.3164-2.0195-0.023438-0.007813-0.039063-0.019532-0.058594-0.027344-0.03125-0.007812-0.0625 0.003906-0.09375 0-2.5273-0.46484-5.1289-0.71875-7.7812-0.73047-0.011719 0-0.019531-0.007812-0.027344-0.007812-0.03125 0-0.066406 0.003906-0.097656 0.003906s-0.066406-0.003906-0.097656-0.003906c-0.011719 0-0.019531 0.003906-0.027344 0.007812-2.6562 0.011719-5.2578 0.26953-7.7852 0.73047-0.03125 0.003906-0.058594-0.007812-0.089844 0-0.023437 0.003906-0.035156 0.019531-0.058594 0.027344-2.5195 0.46875-4.9648 1.1445-7.3164 2.0195-0.027344 0.007813-0.050781 0.003906-0.078125 0.015625-0.019531 0.007812-0.035156 0.027344-0.054688 0.039062-2.3555 0.88672-4.6133 1.9727-6.7617 3.2266-0.046875 0.023437-0.097656 0.027344-0.14453 0.054687-0.03125 0.019532-0.050781 0.050782-0.078124 0.074219-2.0742 1.2305-4.043 2.6211-5.8828 4.1641-0.050781 0.035156-0.10547 0.050781-0.14844 0.09375-0.027344 0.023437-0.035157 0.058594-0.058594 0.085937-1.8789 1.5938-3.6211 3.3359-5.2148 5.2148-0.046875 0.042969-0.10156 0.070313-0.14062 0.125-0.019531 0.027344-0.023437 0.0625-0.042969 0.089844-1.5195 1.8164-2.8945 3.7539-4.1133 5.8008-0.023437 0.03125-0.054687 0.046875-0.074219 0.078125-0.027344 0.042969-0.03125 0.09375-0.050781 0.14062-1.1953 2.0352-2.2344 4.1758-3.0977 6.3984-0.015625 0.035156-0.046875 0.058593-0.0625 0.097656-0.011719 0.03125-0.007813 0.0625-0.015625 0.097656-0.87109 2.2695-1.5664 4.6211-2.0547 7.0469-0.003906 0.011719-0.011718 0.019531-0.011718 0.03125-0.003907 0.011719 0.003906 0.023437 0 0.035156-0.46875 2.3359-0.74609 4.7383-0.82813 7.1914 0 0.023437-0.015624 0.039062-0.015624 0.0625 0 0.023437 0.011718 0.039062 0.011718 0.0625-0.015625 0.47656-0.035156 0.94922-0.035156 1.4258 0 2.1602 0.16406 4.2852 0.46484 6.3633 0.003906 0.019531-0.003906 0.035156 0 0.050781 0.003906 0.007813 0.007812 0.015625 0.011718 0.023438 0.375 2.5703 0.97656 5.0664 1.7734 7.4766 0.011719 0.039063 0.007812 0.078125 0.019531 0.11719 0.011719 0.03125 0.03125 0.050781 0.046875 0.078125 1.6289 4.8438 4.0664 9.3125 7.1562 13.254 0.042969 0.066406 0.066406 0.14062 0.12109 0.19922 0.023438 0.027343 0.058594 0.035156 0.082031 0.058593 1.5469 1.9453 3.25 3.7578 5.0977 5.418 0.039062 0.042969 0.0625 0.09375 0.10937 0.12891 0.03125 0.027343 0.070313 0.035156 0.10547 0.058593 1.8906 1.6758 3.9219 3.1953 6.0781 4.5352 0.035156 0.027343 0.058594 0.066406 0.097656 0.089843 0.042969 0.027344 0.089844 0.035157 0.13281 0.058594 4.4961 2.7539 9.5156 4.7227 14.875 5.7344 0.015625 0.003906 0.03125 0.019531 0.046875 0.023438 0.070312 0.015624 0.14453 0.019531 0.21484 0.023437 2.5273 0.46094 5.1211 0.71484 7.7773 0.73047 0.011718 0 0.019531 0.007812 0.027343 0.007812 0.03125 0 0.066407-0.003906 0.097657-0.003906s0.066406 0.003906 0.097656 0.003906c0.011718 0 0.019531-0.007812 0.027344-0.007812 2.6562-0.015625 5.2539-0.26953 7.7773-0.73047 0.070313-0.003906 0.14062-0.007813 0.21484-0.023437 0.019531-0.003907 0.03125-0.015626 0.050781-0.023438 5.3555-1.0117 10.379-2.9805 14.875-5.7344 0.042969-0.019531 0.089844-0.03125 0.12891-0.058594 0.039063-0.023437 0.0625-0.0625 0.097657-0.089843 2.1562-1.3398 4.1914-2.8594 6.082-4.5391 0.035156-0.023437 0.074219-0.03125 0.10547-0.058594 0.046875-0.035156 0.070312-0.089843 0.10938-0.13281 1.8477-1.6602 3.5469-3.4727 5.0938-5.418 0.027344-0.023438 0.058594-0.03125 0.082031-0.058594 0.054687-0.058594 0.082031-0.13281 0.12109-0.19922 3.0898-3.9375 5.5273-8.4062 7.1523-13.25 0.015626-0.027344 0.035157-0.050782 0.046876-0.082032 0.015624-0.039062 0.011718-0.082031 0.019531-0.12109 0.79688-2.4062 1.3984-4.9023 1.7734-7.4727 0.003906-0.007812 0.007813-0.015625 0.007813-0.023437"/>
<text x="0.0" y="117.5" font-size="5.0" font-weight="bold" font-family="Arbeit Regular, Helvetica, Arial-Unicode, Arial, Sans-serif" fill="#000000">Created by Lee Mette</text><text x="0.0" y="122.5" font-size="5.0" font-weight="bold" font-family="Arbeit Regular, Helvetica, Arial-Unicode, Arial, Sans-serif" fill="#000000">from Noun Project</text></svg>