<?xml version="1.0" encoding="UTF-8" standalone="no"?>
<!-- Created with Inkscape (http://www.inkscape.org/) -->

<svg
   width="69.999992mm"
   height="70mm"
   viewBox="0 0 69.999992 70"
   version="1.1"
   id="svg5"
   xml:space="preserve"
   xmlns="http://www.w3.org/2000/svg"
   xmlns:svg="http://www.w3.org/2000/svg"><defs
     id="defs2" /><g
     id="layer1"
     transform="translate(106.56217,5.3319386)"><g
       id="g1454"
       transform="translate(-177.0881,-48.104325)"><g
         id="g1430"
         transform="matrix(0.46208769,0,0,0.46208769,83.366186,50.656369)"><path
           d="m 38.309,45.895 v -0.12109 c 0.03125,0 0.05859,0.02734 0.05859,0.05859 z m 0,-2.6211 c -1.4102,0 -2.5586,1.1484 -2.5586,2.5586 0,1.4102 1.1484,2.5586 2.5586,2.5586 1.4102,0 2.5586,-1.1484 2.5586,-2.5586 0,-1.4102 -1.1484,-2.5586 -2.5586,-2.5586"
           id="path1420" /><path
           d="m 62.414,45.895 c -0.03125,0 -0.05859,-0.02734 -0.05859,-0.05859 l 0.05859,-0.0625 z m 0,-2.6211 c -1.4102,0 -2.5586,1.1484 -2.5586,2.5586 0,1.4102 1.1484,2.5586 2.5586,2.5586 1.4102,0 2.5586,-1.1484 2.5586,-2.5586 0,-1.4102 -1.1484,-2.5586 -2.5586,-2.5586"
           id="path1422" /><path
           d="M 79.176,81.504 67.981,67.297 c 0.47266,-0.4375 0.92188,-0.89453 1.3594,-1.3633 l 13.117,12.059 c -1.0273,1.2305 -2.1211,2.4023 -3.2812,3.5117 m -60.91,-3.5117 13.117,-12.062 c 0.4375,0.46875 0.88672,0.92578 1.3594,1.3633 l -11.195,14.211 c -1.1602,-1.1055 -2.2539,-2.2773 -3.2812,-3.5117 m 4.3711,-58.16 4.7539,4.9609 c -1.4844,0.14062 -2.832,0.75 -3.9023,1.6758 -0.01172,-0.01172 -0.01953,-0.02734 -0.03125,-0.03516 l -4.2148,-3.2305 c 1.0664,-1.1875 2.1992,-2.3086 3.3945,-3.3672 m 58.844,3.3672 -4.2148,3.2305 c -0.01172,0.01172 -0.01953,0.02344 -0.03125,0.03516 -1.0703,-0.92578 -2.418,-1.5352 -3.9023,-1.6758 l 4.7539,-4.9609 c 1.1914,1.0586 2.3281,2.1836 3.3945,3.3711 m -5.6055,29.398 c 0.07031,-0.44922 0.13281,-0.90234 0.18359,-1.3555 l 16.137,-0.27734 c 0,0.06641 0.0039,0.12891 0.0039,0.19531 0,1.582 -0.09766,3.1406 -0.26953,4.6758 z m 16.227,-4.1328 -15.906,0.27344 c 0,-0.0625 0.0039,-0.125 0.0039,-0.19141 0,-0.52344 -0.02344,-1.0547 -0.05859,-1.5898 l 15.445,-2.8867 c 0.24609,1.4414 0.42187,2.9062 0.51562,4.3945 m -1.0117,-6.8438 -15.227,2.8438 c -0.09766,-0.60938 -0.21484,-1.2148 -0.35156,-1.8203 l 14.309,-5.3789 c 0.5,1.418 0.91797,2.8711 1.2656,4.3555 m -2.1602,-6.6836 -14.07,5.2891 c -0.18359,-0.57031 -0.37891,-1.1328 -0.59375,-1.6797 1.1719,-0.27344 2.2266,-0.84766 3.0938,-1.6289 l 9.6523,-5.9375 c 0.70313,1.2773 1.3516,2.5977 1.9219,3.9531 m -3.1953,-6.1055 -6.1484,3.7812 c 0.03516,-0.28516 0.07422,-0.57422 0.07422,-0.87109 0,-1.2109 -0.30859,-2.3516 -0.85547,-3.3438 l 4.2891,-3.2891 c 0.94531,1.1914 1.8242,2.4336 2.6367,3.7227 m -32.082,-5.5742 c -0.64453,-0.07812 -1.293,-0.12891 -1.9414,-0.15625 v -13.844 c 1.6562,0.058594 3.2812,0.21875 4.8828,0.46094 z m 22.516,-5.0391 -7.457,7.7773 c -0.92578,0.63672 -1.707,1.4844 -2.2383,2.5039 -0.4375,-0.33594 -0.89453,-0.64844 -1.3555,-0.95703 l 7.3984,-11.906 c 1.2656,0.79688 2.4805,1.6562 3.6523,2.5781 m -5.8125,-3.8398 -7.375,11.867 c -0.73828,-0.39844 -1.5039,-0.75391 -2.2734,-1.082 l 5.3125,-12.852 c 1.4922,0.60547 2.9375,1.2969 4.3359,2.0664 m -6.6797,-2.9453 -5.3164,12.867 c -0.74219,-0.23438 -1.4883,-0.4375 -2.2461,-0.60547 l 2.9414,-13.523 c 1.5742,0.33594 3.1172,0.75391 4.6211,1.2617 m -14.66,11.672 c -0.64844,0.02734 -1.2969,0.07813 -1.9414,0.15625 l -2.9414,-13.539 c 1.6016,-0.24219 3.2305,-0.40625 4.8828,-0.46094 z m -7.3438,-12.934 2.9375,13.523 c -0.75781,0.16797 -1.5039,0.37109 -2.2422,0.60547 l -5.3203,-12.867 c 1.5039,-0.50781 3.0508,-0.92578 4.625,-1.2617 m -6.9648,2.1445 5.3125,12.852 c -0.77344,0.32813 -1.5352,0.67969 -2.2734,1.082 l -7.375,-11.867 c 1.3984,-0.76953 2.8477,-1.457 4.3359,-2.0664 m -6.4961,3.3242 7.3984,11.906 c -0.46094,0.30859 -0.91406,0.61719 -1.3555,0.95312 -0.53125,-1.0195 -1.3086,-1.8633 -2.2344,-2.5039 l -7.457,-7.7812 c 1.1719,-0.92188 2.3867,-1.7852 3.6523,-2.5781 m -19.688,35.531 c 0,-0.06641 0.00391,-0.12891 0.00391,-0.19531 l 16.137,0.27734 c 0.05078,0.45312 0.10938,0.90625 0.18359,1.3555 l -16.059,3.2383 C 8.6187,54.30496 8.52104,52.74636 8.52104,51.16436 m 16.055,-4.2031 c -0.03516,0.53516 -0.05859,1.0664 -0.05859,1.5898 0,0.0625 0.0039,0.12891 0.0039,0.19141 l -15.906,-0.27344 c 0.09375,-1.4883 0.26953,-2.9531 0.51562,-4.3945 z m -6.9531,-21.852 4.2891,3.2891 c -0.54688,0.99219 -0.85547,2.1328 -0.85547,3.3438 0,0.29687 0.03906,0.58594 0.07422,0.87109 l -6.1523,-3.7812 c 0.81641,-1.2891 1.6914,-2.5352 2.6406,-3.7266 m -3.9102,5.8789 9.6523,5.9375 c 0.86328,0.78125 1.9219,1.3555 3.0938,1.6289 -0.21875,0.54688 -0.41016,1.1094 -0.59766,1.6797 l -14.07,-5.2891 c 0.57031,-1.3555 1.2148,-2.6719 1.9219,-3.9531 m -2.8203,6.2852 14.309,5.3828 c -0.13672,0.60156 -0.25391,1.2109 -0.34766,1.8164 l -15.227,-2.8438 c 0.34766,-1.4844 0.76562,-2.9375 1.2656,-4.3555 m -1.7461,21.051 16.219,-3.2734 c 0.16797,0.63672 0.36719,1.2656 0.58594,1.8867 l -15.695,6.1523 c -0.46094,-1.5547 -0.82812,-3.1445 -1.1094,-4.7656 m 1.8906,7.1445 15.852,-6.2148 c 0.17578,0.37891 0.35938,0.75 0.55078,1.1172 l -14.414,9.6602 c -0.74609,-1.4766 -1.418,-2.9961 -1.9883,-4.5664 m 3.1836,6.7734 14.484,-9.7109 c 0.33594,0.50781 0.6875,1.0039 1.0586,1.4883 l -13.043,12.008 c -0.89453,-1.2148 -1.7266,-2.4766 -2.4883,-3.7812 m 51.676,-6.4375 c -0.26953,0.23828 -0.42188,0.57812 -0.42188,0.9375 l -0.01953,5.7344 c 0,3.7188 -3.0234,6.7422 -6.7422,6.7422 -3.5977,0 -6.5352,-2.832 -6.7266,-6.3828 4.3945,-0.62109 7.7891,-4.3945 7.7891,-8.957 0,-0.0625 -0.0039,-0.12109 -0.01172,-0.18359 l -3.9727,-26.699 c -0.10156,-0.68359 -0.74609,-1.1523 -1.4219,-1.0508 -0.68359,0.10156 -1.1523,0.73828 -1.0547,1.4219 l 3.7578,25.266 h -6.3555 c -0.12891,0 -0.24609,0.03516 -0.35938,0.07422 -0.11719,-0.03516 -0.23438,-0.07422 -0.36328,-0.07422 h -6.3555 l 3.7578,-25.266 c 0.10156,-0.68359 -0.36719,-1.3203 -1.0508,-1.4219 -0.69141,-0.10547 -1.3203,0.36719 -1.4219,1.0508 l -3.9727,26.699 c -0.01172,0.0625 -0.01563,0.12109 -0.01563,0.18359 0,4.5625 3.3945,8.3398 7.7891,8.957 -0.1875,3.5508 -3.1289,6.3828 -6.7266,6.3828 -3.7188,0 -6.7422,-3.0234 -6.7422,-6.7539 l -0.01953,-5.7227 c 0,-0.35938 -0.15625,-0.69922 -0.42578,-0.9375 -4.957,-4.3633 -7.8008,-10.652 -7.8008,-17.25 0,-3.4922 0.89453,-7.418 2.3906,-10.504 0.17969,-0.37109 0.16406,-0.80859 -0.03906,-1.1641 -0.20313,-0.35938 -0.57031,-0.59375 -0.98047,-0.62891 l -0.23438,-0.01953 c -0.03516,-0.0039 -0.07031,-0.0039 -0.10547,-0.0039 -2.4766,0 -4.4883,-2.0117 -4.4883,-4.4883 0,-2.4766 2.0156,-4.4883 4.4883,-4.4883 2.0664,0 3.8555,1.3984 4.3555,3.3984 0.0078,0.03516 0.01953,0.07031 0.03125,0.10547 l 0.07422,0.21875 c 0.13672,0.39453 0.46094,0.69531 0.86328,0.80078 0.40234,0.10156 0.83203,0.0039 1.1445,-0.27344 4.2734,-3.7695 9.9141,-5.9297 15.473,-5.9297 h 0.71875 c 5.5625,0 11.199,2.1602 15.473,5.9297 0.3125,0.27344 0.74219,0.37891 1.1445,0.27344 0.40234,-0.10547 0.72656,-0.40234 0.86328,-0.79688 l 0.07422,-0.21875 c 0.01172,-0.03516 0.02344,-0.07422 0.03125,-0.10938 0.5,-2.0039 2.2891,-3.3984 4.3555,-3.3984 2.4766,0 4.4883,2.0156 4.4883,4.4883 0,2.4766 -2.0117,4.4883 -4.4883,4.4883 -0.03516,0 -0.07031,0.0039 -0.10547,0.0039 l -0.23438,0.01953 c -0.41016,0.03516 -0.77734,0.26953 -0.98047,0.62891 -0.20313,0.35938 -0.21875,0.79297 -0.03906,1.1641 1.4961,3.0859 2.3906,7.0117 2.3906,10.504 0,6.5977 -2.8438,12.887 -7.8008,17.25 m -14.191,22.227 c 1.3047,-0.14062 2.5391,-0.46484 3.6602,-0.94922 l 1.2969,5.5195 c -1.625,0.25 -3.2773,0.41406 -4.9609,0.47266 z m -1.7109,-22.902 c 0.12891,0 0.24609,-0.03516 0.36328,-0.07422 0.11719,0.03516 0.23438,0.07422 0.35938,0.07422 h 6.4336 c -0.58594,3.0195 -3.2422,5.3086 -6.4336,5.3086 -0.12891,0 -0.24609,0.03906 -0.35938,0.07422 -0.11719,-0.03516 -0.23438,-0.07422 -0.36328,-0.07422 -3.1875,0 -5.8477,-2.2891 -6.4336,-5.3086 z m -7.2812,16.562 c 3.3867,-0.25781 6.2578,-2.3516 7.6445,-5.2852 1.3828,2.9297 4.2578,5.0273 7.6445,5.2852 -1.2695,2.2852 -4.2812,3.8828 -7.6445,3.9141 -3.3594,-0.03125 -6.3711,-1.6289 -7.6445,-3.9141 m 2.6328,5.3906 c 1.1211,0.48438 2.3594,0.80859 3.6602,0.94922 v 5.043 c -1.6797,-0.05859 -3.3359,-0.22266 -4.9609,-0.47266 z m -21.941,-3.8984 9.3516,-11.871 0.0039,1.168 c 0,1.3086 0.27734,2.5547 0.77344,3.6836 l -6.0703,10.027 c -1.4062,-0.92578 -2.7578,-1.9297 -4.0352,-3.0117 m 6.1602,4.3281 5.4609,-8.9922 c 0.71094,0.82031 1.5664,1.5156 2.5234,2.0469 l -3.6289,9.125 c -1.5,-0.64453 -2.9531,-1.3711 -4.3555,-2.1797 m 6.6836,3.0977 3.6328,-9.1406 c 0.01172,0.0039 0.02344,0.0078 0.03125,0.0078 0.53125,1.6914 1.6602,3.168 3.1719,4.2969 l -1.4961,6.3711 c -1.8281,-0.39453 -3.6094,-0.91016 -5.3398,-1.5352 m 22.879,1.5352 -1.4961,-6.3711 c 1.5117,-1.1289 2.6406,-2.6016 3.1719,-4.2969 0.01172,-0.0039 0.02344,-0.0078 0.03125,-0.0078 l 3.6328,9.1406 c -1.7305,0.625 -3.5156,1.1406 -5.3438,1.5352 m 7.6641,-2.4531 -3.6289,-9.125 c 0.96094,-0.53125 1.8125,-1.2266 2.5234,-2.0469 l 5.4609,8.9922 c -1.4023,0.80859 -2.8594,1.5352 -4.3555,2.1797 m 6.4805,-3.5 -6.0898,-10.031 c 0.49219,-1.1289 0.76953,-2.3672 0.76953,-3.6758 l 0.0039,-1.1797 9.3555,11.871 c -1.2773,1.0898 -2.6289,2.0938 -4.0352,3.0195 m 10.734,-10.168 -13.059,-12.004 c 0.37109,-0.48438 0.72266,-0.98047 1.0586,-1.4883 l 14.488,9.7109 c -0.76562,1.3086 -1.5938,2.5703 -2.4883,3.7812 m 3.6836,-5.9922 -14.414,-9.6602 c 0.19141,-0.36719 0.37891,-0.74219 0.55078,-1.1211 l 15.852,6.2148 c -0.57031,1.5703 -1.2422,3.0938 -1.9883,4.5703 m 2.7695,-6.9453 -15.695,-6.1523 c 0.21875,-0.62109 0.41797,-1.2461 0.58594,-1.8867 l 16.219,3.2734 c -0.28125,1.6211 -0.64844,3.2148 -1.1094,4.7656 m 3.7695,-5.5078 c 0.0039,-0.01953 -0.0039,-0.03516 0,-0.05078 0.30078,-2.0781 0.46484,-4.2031 0.46484,-6.3633 0,-0.48047 -0.01953,-0.95312 -0.03516,-1.4297 0,-0.01953 0.01172,-0.03906 0.01172,-0.05859 0,-0.02344 -0.01172,-0.04297 -0.01563,-0.0625 -0.08594,-2.4531 -0.35938,-4.8555 -0.82812,-7.1914 -0.0039,-0.01172 0.0039,-0.02344 0,-0.03516 -0.0039,-0.01172 -0.0078,-0.01953 -0.01172,-0.03125 -0.48828,-2.4258 -1.1836,-4.7773 -2.0547,-7.0469 -0.01172,-0.03125 -0.0039,-0.0625 -0.01563,-0.09766 -0.01563,-0.03516 -0.04297,-0.0625 -0.0625,-0.09766 -0.86328,-2.2266 -1.9023,-4.3672 -3.1016,-6.4023 -0.01953,-0.04297 -0.02344,-0.09375 -0.05078,-0.13672 -0.01953,-0.03125 -0.05078,-0.05078 -0.07422,-0.07813 -1.2188,-2.0469 -2.5938,-3.9844 -4.1133,-5.8008 -0.01953,-0.02734 -0.02344,-0.0625 -0.04297,-0.08984 -0.03906,-0.05078 -0.09766,-0.07813 -0.14063,-0.12109 -1.5938,-1.8789 -3.3359,-3.6211 -5.2148,-5.2148 -0.02344,-0.02734 -0.03125,-0.0625 -0.05859,-0.08594 -0.04297,-0.04297 -0.10156,-0.05859 -0.14844,-0.09375 -1.8398,-1.5391 -3.8086,-2.9336 -5.8867,-4.1641 -0.03125,-0.02344 -0.04687,-0.05469 -0.07813,-0.07422 -0.04687,-0.02734 -0.09766,-0.03125 -0.14453,-0.05469 -2.1484,-1.2578 -4.4062,-2.3438 -6.7617,-3.2305 C 65.85562,9.558942 65.83999,9.543317 65.81656,9.531598 65.79312,9.519879 65.76578,9.523788 65.73843,9.515973 c -2.3516,-0.875 -4.7969,-1.5508 -7.3164,-2.0195 -0.02344,-0.00781 -0.03906,-0.019532 -0.05859,-0.027344 -0.03125,-0.00781 -0.0625,0.00391 -0.09375,0 -2.5273,-0.46484 -5.1289,-0.71875 -7.7812,-0.73047 -0.01172,0 -0.01953,-0.00781 -0.02734,-0.00781 -0.03125,0 -0.06641,0.00391 -0.09766,0.00391 -0.03125,0 -0.06641,-0.00391 -0.09766,-0.00391 -0.01172,0 -0.01953,0.00391 -0.02734,0.00781 -2.6562,0.011719 -5.2578,0.26953 -7.7852,0.73047 -0.03125,0.00391 -0.05859,-0.00781 -0.08984,0 -0.02344,0.00391 -0.03516,0.019531 -0.05859,0.027344 -2.5195,0.46875 -4.9648,1.1445 -7.3164,2.0195 -0.02734,0.00781 -0.05078,0.00391 -0.07813,0.015625 -0.01953,0.00781 -0.03516,0.027344 -0.05469,0.039062 -2.3555,0.88672 -4.6133,1.9727 -6.7617,3.2266 -0.04687,0.02344 -0.09766,0.02734 -0.14453,0.05469 -0.03125,0.01953 -0.05078,0.05078 -0.07812,0.07422 -2.0742,1.2305 -4.043,2.6211 -5.8828,4.1641 -0.05078,0.03516 -0.10547,0.05078 -0.14844,0.09375 -0.02734,0.02344 -0.03516,0.05859 -0.05859,0.08594 -1.8789,1.5938 -3.6211,3.3359 -5.2148,5.2148 -0.04687,0.04297 -0.10156,0.07031 -0.14062,0.125 -0.01953,0.02734 -0.02344,0.0625 -0.04297,0.08984 -1.5195,1.8164 -2.8945,3.7539 -4.1133,5.8008 -0.02344,0.03125 -0.05469,0.04687 -0.07422,0.07813 -0.02734,0.04297 -0.03125,0.09375 -0.05078,0.14062 -1.1953,2.0352 -2.2344,4.1758 -3.0977,6.3984 -0.015625,0.03516 -0.046875,0.05859 -0.0625,0.09766 -0.011719,0.03125 -0.00781,0.0625 -0.015625,0.09766 -0.87109,2.2695 -1.5664,4.6211 -2.0547,7.0469 -0.00391,0.01172 -0.011718,0.01953 -0.011718,0.03125 -0.00391,0.01172 0.00391,0.02344 0,0.03516 -0.46875,2.3359 -0.74609,4.7383 -0.82813,7.1914 0,0.02344 -0.015624,0.03906 -0.015624,0.0625 0,0.02344 0.011718,0.03906 0.011718,0.0625 -0.015625,0.47656 -0.035156,0.94922 -0.035156,1.4258 0,2.1602 0.16406,4.2852 0.46484,6.3633 0.00391,0.01953 -0.00391,0.03516 0,0.05078 0.00391,0.0078 0.00781,0.01563 0.011718,0.02344 0.375,2.5703 0.97656,5.0664 1.7734,7.4766 0.011719,0.03906 0.00781,0.07813 0.019531,0.11719 0.011719,0.03125 0.03125,0.05078 0.046875,0.07813 1.6289,4.8438 4.0664,9.3125 7.1562,13.254 0.04297,0.06641 0.06641,0.14062 0.12109,0.19922 0.02344,0.02734 0.05859,0.03516 0.08203,0.05859 1.5469,1.9453 3.25,3.7578 5.0977,5.418 0.03906,0.04297 0.0625,0.09375 0.10937,0.12891 0.03125,0.02734 0.07031,0.03516 0.10547,0.05859 1.8906,1.6758 3.9219,3.1953 6.0781,4.5352 0.03516,0.02734 0.05859,0.06641 0.09766,0.08984 0.04297,0.02734 0.08984,0.03516 0.13281,0.05859 4.4961,2.7539 9.5156,4.7227 14.875,5.7344 0.01563,0.0039 0.03125,0.01953 0.04687,0.02344 0.07031,0.01562 0.14453,0.01953 0.21484,0.02344 2.5273,0.46094 5.1211,0.71484 7.7773,0.73047 0.01172,0 0.01953,0.0078 0.02734,0.0078 0.03125,0 0.06641,-0.0039 0.09766,-0.0039 0.03125,0 0.06641,0.0039 0.09766,0.0039 0.01172,0 0.01953,-0.0078 0.02734,-0.0078 2.6562,-0.01563 5.2539,-0.26953 7.7773,-0.73047 0.07031,-0.0039 0.14062,-0.0078 0.21484,-0.02344 0.01953,-0.0039 0.03125,-0.01563 0.05078,-0.02344 5.3555,-1.0117 10.379,-2.9805 14.875,-5.7344 0.04297,-0.01953 0.08984,-0.03125 0.12891,-0.05859 0.03906,-0.02344 0.0625,-0.0625 0.09766,-0.08984 2.1562,-1.3398 4.1914,-2.8594 6.082,-4.5391 0.03516,-0.02344 0.07422,-0.03125 0.10547,-0.05859 0.04687,-0.03516 0.07031,-0.08984 0.10938,-0.13281 1.8477,-1.6602 3.5469,-3.4727 5.0938,-5.418 0.02734,-0.02344 0.05859,-0.03125 0.08203,-0.05859 0.05469,-0.05859 0.08203,-0.13281 0.12109,-0.19922 3.0898,-3.9375 5.5273,-8.4062 7.1523,-13.25 0.01563,-0.02734 0.03516,-0.05078 0.04688,-0.08203 0.01562,-0.03906 0.01172,-0.08203 0.01953,-0.12109 0.79688,-2.4062 1.3984,-4.9023 1.7734,-7.4727 0.0039,-0.0078 0.0078,-0.01563 0.0078,-0.02344"
           id="path1424" /><text
           x="5.8153348"
           y="106.33592"
           font-size="5px"
           font-weight="bold"
           font-family="'Arbeit Regular', Helvetica, Arial-Unicode, Arial, Sans-serif"
           fill="#000000"
           id="text1426">Created by Lee Mette</text><text
           x="5.9653349"
           y="111.33592"
           font-size="5px"
           font-weight="bold"
           font-family="'Arbeit Regular', Helvetica, Arial-Unicode, Arial, Sans-serif"
           fill="#000000"
           id="text1428">from Noun Project</text></g><rect
         style="fill:none;stroke:#808080;stroke-width:0.525921"
         id="rect1432"
         width="69.474075"
         height="69.474075"
         x="70.788887"
         y="43.035347" /><g
         id="g1452"><ellipse
           style="fill:#000000;stroke:#000000;stroke-width:0.332102"
           id="ellipse1434"
           cx="134.95425"
           cy="48.288891"
           rx="1.2883031"
           ry="1.2331359" /><ellipse
           style="fill:#000000;stroke:#000000;stroke-width:0.332102"
           id="ellipse1436"
           cx="76.097603"
           cy="48.288891"
           rx="1.2883031"
           ry="1.2331359" /><ellipse
           style="fill:#000000;stroke:#000000;stroke-width:0.332102"
           id="ellipse1438"
           cx="105.52592"
           cy="48.288891"
           rx="1.2883031"
           ry="1.2331359" /><ellipse
           style="fill:#000000;stroke:#000000;stroke-width:0.332102"
           id="ellipse1440"
           cx="107.20071"
           cy="-76.097603"
           rx="1.2883031"
           ry="1.2331359"
           transform="rotate(90)" /><ellipse
           style="fill:#000000;stroke:#000000;stroke-width:0.332102"
           id="ellipse1442"
           cx="77.772377"
           cy="-76.097603"
           rx="1.2883031"
           ry="1.2331359"
           transform="rotate(90)" /><ellipse
           style="fill:#000000;stroke:#000000;stroke-width:0.332102"
           id="ellipse1444"
           cx="107.20071"
           cy="-134.95425"
           rx="1.2883031"
           ry="1.2331359"
           transform="rotate(90)" /><ellipse
           style="fill:#000000;stroke:#000000;stroke-width:0.332102"
           id="ellipse1446"
           cx="77.772385"
           cy="-134.95425"
           rx="1.2883031"
           ry="1.2331359"
           transform="rotate(90)" /><g
           id="g1450"
           transform="rotate(180,105.4429,77.595603)"><ellipse
             style="fill:#000000;stroke:#000000;stroke-width:0.332102"
             id="ellipse1448"
             cx="105.35986"
             cy="47.935329"
             rx="1.2883031"
             ry="1.2331359" /></g></g></g></g></svg>
